<?xml version="1.0" encoding="utf-8"?>
<!-- Generator: Adobe Illustrator 22.0.1, SVG Export Plug-In . SVG Version: 6.00 Build 0)  -->
<svg xmlns:xlink="http://www.w3.org/1999/xlink" version="1.1" id="Layer_1" xmlns="http://www.w3.org/2000/svg" x="0px"
     y="0px"
     viewBox="0 0 500 500" style="enable-background:new 0 0 500 500;" xml:space="preserve">
<style type="text/css">
	.st0{fill:#e93355;}
</style>
    <g>
	<g>
		<path class="st0" d="M42.5,89.5c13.8,0,27.6,0,41.4,0c33.2,0,66.3,0,99.5,0c40.1,0,80.2,0,120.3,0c34.7,0,69.3,0,104,0
			c16.8,0,33.8,0.8,50.6,0c0.2,0,0.5,0,0.7,0c-5.8-5.8-11.7-11.7-17.5-17.5c0,12.1,0,24.2,0,36.3c0,29,0,58.1,0,87.1
			c0,35.1,0,70.3,0,105.4c0,30.4,0,60.7,0,91.1c0,14.7-0.5,29.5,0,44.1c0,0.2,0,0.4,0,0.7c0,9.2,8,17.9,17.5,17.5
			c9.5-0.4,17.5-7.7,17.5-17.5c0-12.1,0-24.2,0-36.3c0-29,0-58.1,0-87.1c0-35.1,0-70.3,0-105.4c0-30.4,0-60.7,0-91.1
			c0-14.7,0.5-29.5,0-44.1c0-0.2,0-0.4,0-0.7c0-9.5-8-17.5-17.5-17.5c-13.8,0-27.6,0-41.4,0c-33.2,0-66.3,0-99.5,0
			c-40.1,0-80.2,0-120.3,0c-34.7,0-69.3,0-104,0c-16.8,0-33.7-0.5-50.6,0c-0.2,0-0.5,0-0.7,0c-9.2,0-17.9,8-17.5,17.5
			C25.5,81.5,32.7,89.5,42.5,89.5L42.5,89.5z"/>
	</g>
</g>
    <g>
	<g>
		<path class="st0" d="M57.6,445.5c6.9-10.1,13.8-20.2,20.7-30.3c16.6-24.2,33.2-48.5,49.8-72.7c20.1-29.3,40.1-58.6,60.2-87.9
			c17.3-25.2,34.5-50.5,51.8-75.7c8.4-12.3,17.6-24.4,25.4-37.1c0.1-0.2,0.2-0.4,0.4-0.5c-10.1,0-20.1,0-30.2,0
			c6.9,10.1,13.8,20.2,20.7,30.3c16.6,24.2,33.2,48.5,49.8,72.7c20.1,29.3,40.1,58.6,60.2,87.9c17.3,25.2,34.5,50.5,51.8,75.7
			c8.5,12.3,16.7,24.8,25.4,37.1c0.1,0.2,0.2,0.4,0.4,0.5c5.2,7.5,15.6,11.7,23.9,6.3c7.5-4.8,11.8-15.9,6.3-23.9
			c-6.9-10.1-13.8-20.2-20.7-30.3c-16.6-24.2-33.2-48.5-49.8-72.7c-20.1-29.3-40.1-58.6-60.2-87.9c-17.3-25.2-34.5-50.5-51.8-75.7
			c-8.5-12.3-16.7-24.8-25.4-37.1c-0.1-0.2-0.2-0.4-0.4-0.5c-7.7-11.2-22.5-11.2-30.2,0c-6.9,10.1-13.8,20.2-20.7,30.3
			c-16.6,24.2-33.2,48.5-49.8,72.7C145.1,256,125,285.3,105,314.6c-17.3,25.2-34.5,50.5-51.8,75.7c-8.4,12.3-17.5,24.4-25.4,37.1
			c-0.1,0.2-0.2,0.4-0.4,0.5c-5.2,7.6-1.7,19.7,6.3,23.9C42.6,456.5,52.1,453.6,57.6,445.5L57.6,445.5z"/>
	</g>
</g>
    <g>
	<g>
		<path class="st0" d="M142.9,445.5c13.9-19.9,27.7-39.9,41.6-59.8c22.1-31.7,44.2-63.5,66.3-95.2c5-7.2,10.1-14.5,15.1-21.7
			c-10.1,0-20.1,0-30.2,0c13.9,19.9,27.7,39.9,41.6,59.8c22.1,31.7,44.2,63.5,66.3,95.2c5,7.2,10.1,14.5,15.1,21.7
			c5.2,7.5,15.6,11.7,23.9,6.3c7.5-4.8,11.9-15.9,6.3-23.9c-13.9-19.9-27.7-39.9-41.6-59.8c-22.1-31.7-44.2-63.5-66.3-95.2
			c-5-7.2-10.1-14.5-15.1-21.7c-7.8-11.2-22.4-11.2-30.2,0C221.8,271,207.9,291,194,310.9c-22.1,31.7-44.2,63.5-66.3,95.2
			c-5,7.2-10.1,14.5-15.1,21.7c-5.2,7.5-1.6,19.8,6.3,23.9C127.9,456.5,137.3,453.6,142.9,445.5L142.9,445.5z"/>
	</g>
</g>
</svg>
