<?xml version="1.0" encoding="utf-8"?>
<!-- Generator: Adobe Illustrator 25.4.0, SVG Export Plug-In . SVG Version: 6.00 Build 0)  -->
<svg xmlns:xlink="http://www.w3.org/1999/xlink" version="1.1" id="Layer_1" xmlns="http://www.w3.org/2000/svg" x="0px"
     y="0px"
     viewBox="0 0 16 16" style="enable-background:new 0 0 16 16;" xml:space="preserve">
<style type="text/css">
	.st0{fill:none;stroke:rgb(80, 80, 80);stroke-width:0.8;stroke-miterlimit:10;}
</style>
    <g>
	<circle class="st0" cx="2.1" cy="4.4" r="1"/>
        <circle class="st0" cx="2.1" cy="11.6" r="1"/>
        <polyline class="st0" points="2.1,3.4 8,3.4 13.9,3.4 	"/>
        <line class="st0" x1="2.1" y1="10.6" x2="4.2" y2="10.6"/>
        <g>
		<path class="st0" d="M8,12.6c-2.6,0-4.6-2.1-4.6-4.6c0-1,0.3-1.9,0.8-2.6"/>
            <path class="st0" d="M8,3.4c2.6,0,4.6,2.1,4.6,4.6c0,1-0.3,1.9-0.8,2.6"/>
            <circle class="st0" cx="8" cy="8" r="2.6"/>
            <circle class="st0" cx="13.9" cy="4.4" r="1"/>
            <circle class="st0" cx="13.9" cy="11.6" r="1"/>
            <line class="st0" x1="8" y1="5.4" x2="2.1" y2="5.4"/>
            <line class="st0" x1="8" y1="10.6" x2="13.9" y2="10.6"/>
            <polyline class="st0" points="2.1,12.6 8,12.6 13.9,12.6 		"/>
            <line class="st0" x1="13.9" y1="5.4" x2="11.8" y2="5.4"/>
	</g>
</g>
</svg>
